<?xml version="1.0" standalone="no"?>
<!DOCTYPE svg PUBLIC "-//W3C//DTD SVG 20010904//EN"
 "http://www.w3.org/TR/2001/REC-SVG-20010904/DTD/svg10.dtd">
<svg version="1.0" xmlns="http://www.w3.org/2000/svg"
 width="503.000000pt" height="294.000000pt" viewBox="0 0 503.000000 294.000000"
 preserveAspectRatio="xMidYMid meet">

<g transform="translate(0.000000,294.000000) scale(0.100000,-0.100000)"
fill="#000000" stroke="none">
<path d="M2210 1849 l0 -190 52 3 c51 3 52 4 60 38 10 46 8 288 -3 318 -7 19
-16 22 -59 22 l-50 0 0 -191z m70 7 c0 -86 -4 -147 -10 -151 -6 -4 -10 47 -10
144 0 94 4 151 10 151 6 0 10 -55 10 -144z"/>
<path d="M2878 1992 c-1 -27 -2 -112 0 -190 3 -132 5 -142 23 -142 18 0 19 8
19 130 0 83 4 130 10 130 7 0 7 6 0 19 -5 11 -10 38 -10 60 0 34 -3 41 -19 41
-16 0 -20 -9 -23 -48z"/>
<path d="M2350 2010 c0 -15 7 -20 25 -20 18 0 25 5 25 20 0 15 -7 20 -25 20
-18 0 -25 -5 -25 -20z"/>
<path d="M2446 1947 c-23 -17 -33 -96 -17 -126 7 -12 23 -26 37 -31 20 -8 24
-16 24 -50 0 -22 -4 -40 -10 -40 -5 0 -10 16 -10 35 0 31 -3 35 -25 35 -21 0
-25 -5 -25 -29 0 -65 33 -101 78 -86 57 18 55 179 -2 187 -16 2 -22 11 -24 36
-4 39 15 44 20 5 2 -20 9 -29 26 -31 20 -3 22 1 22 37 0 59 -50 90 -94 58z"/>
<path d="M2594 1935 c-13 -13 -24 -36 -24 -50 0 -20 5 -25 25 -25 20 0 25 5
25 24 0 14 5 28 10 31 6 4 10 -7 10 -25 0 -23 -6 -33 -25 -42 -31 -14 -37 -36
-33 -113 3 -67 22 -85 78 -77 l30 4 0 127 c0 136 -6 158 -48 166 -16 3 -32 -4
-48 -20z m50 -170 c6 -45 -1 -78 -15 -70 -10 7 -12 98 -2 108 9 10 12 5 17
-38z"/>
<path d="M2754 1953 c-28 -5 -40 -37 -36 -96 3 -41 7 -50 30 -60 41 -18 44
-26 33 -99 0 -5 -5 -8 -11 -8 -5 0 -10 18 -10 40 0 33 -3 40 -20 40 -17 0 -20
-7 -20 -45 0 -36 5 -48 24 -60 61 -40 108 50 75 144 -8 23 -17 31 -35 31 -21
0 -24 5 -24 35 0 19 5 35 10 35 6 0 10 -13 10 -30 0 -25 4 -30 25 -30 22 0 25
4 25 35 0 31 -32 78 -49 74 -3 -1 -16 -4 -27 -6z"/>
<path d="M2350 1805 l0 -145 25 0 25 0 0 145 0 145 -25 0 -25 0 0 -145z"/>
<path d="M2981 1937 c-15 -19 -16 -243 -1 -262 7 -8 25 -15 41 -15 35 0 55 29
58 83 1 31 -2 37 -18 37 -16 0 -20 -8 -23 -42 -2 -23 -9 -43 -15 -46 -10 -3
-13 13 -13 57 l0 61 35 0 35 0 0 48 c0 59 -21 92 -59 92 -16 0 -33 -6 -40 -13z
m57 -60 c2 -28 -1 -37 -12 -37 -12 0 -16 11 -16 41 0 52 24 48 28 -4z"/>
<path d="M3110 1805 c0 -138 1 -145 20 -145 19 0 20 7 20 124 0 100 3 125 15
130 25 9 5 36 -26 36 l-29 0 0 -145z"/>
<path d="M1495 1863 c-4 -10 -26 -109 -50 -220 l-42 -203 51 -156 c42 -128 59
-165 90 -201 64 -74 456 -414 469 -407 7 4 52 37 100 73 l89 66 -6 43 c-10 71
-62 185 -104 223 -20 20 -75 57 -120 85 -78 45 -90 58 -170 166 -48 64 -97
122 -110 127 -39 18 -52 14 -52 -19 0 -21 28 -76 88 -173 104 -167 112 -181
112 -201 0 -41 -54 18 -159 176 -134 199 -134 200 -113 390 13 108 13 135 1
185 -12 51 -17 58 -40 61 -18 2 -29 -3 -34 -15z"/>
<path d="M2212 1410 c3 -188 3 -190 25 -190 18 0 22 7 26 43 l4 42 1 -42 c2
-35 5 -43 22 -43 19 0 23 12 33 95 2 17 5 2 6 -32 1 -56 3 -63 21 -63 19 0 20
7 20 191 l0 190 -22 -3 c-21 -3 -25 -13 -39 -93 -15 -86 -16 -88 -22 -50 -26
143 -27 145 -53 145 l-25 0 3 -190z"/>
<path d="M3648 1552 c-1 -27 -2 -112 0 -190 3 -130 5 -142 22 -142 17 0 19 12
22 142 4 197 1 238 -22 238 -14 0 -19 -10 -22 -48z"/>
<path d="M2424 1512 c-16 -11 -34 -48 -34 -71 0 -16 6 -21 25 -21 20 0 25 5
25 25 0 14 5 25 10 25 22 0 10 -47 -15 -58 -14 -7 -30 -23 -35 -38 -22 -56 -6
-146 28 -159 8 -3 30 -3 48 1 l34 6 0 129 c0 116 -2 131 -20 149 -21 21 -47
25 -66 12z m36 -197 c0 -30 -4 -55 -10 -55 -11 0 -14 93 -3 103 12 12 13 8 13
-48z"/>
<path d="M2578 1512 l-38 -3 0 -145 0 -144 25 0 25 0 0 125 c0 77 4 125 10
125 6 0 10 -48 10 -125 l0 -125 25 0 26 0 -3 136 c-3 154 -8 163 -80 156z"/>
<path d="M2719 1513 c-18 -4 -39 -44 -39 -73 0 -15 7 -20 25 -20 20 0 25 5 25
25 0 27 15 34 24 10 3 -8 -2 -21 -10 -27 -58 -47 -64 -57 -64 -105 0 -26 3
-58 6 -70 7 -24 45 -40 87 -35 l27 3 0 117 c0 139 -4 156 -36 171 -14 6 -26
10 -27 10 -1 -1 -9 -3 -18 -6z m31 -204 c0 -37 -4 -58 -10 -54 -18 11 -12 115
7 115 2 0 3 -27 3 -61z"/>
<path d="M2851 1491 c-14 -25 -13 -362 1 -378 6 -7 25 -13 44 -13 40 0 54 21
54 77 0 44 -15 69 -45 76 -18 3 -17 5 6 15 35 14 39 28 39 143 l0 99 -45 0
c-33 0 -47 -5 -54 -19z m59 -84 c0 -69 -8 -107 -21 -107 -10 0 -12 163 -3 173
16 15 24 -8 24 -66z m-5 -232 c0 -22 -5 -40 -12 -42 -9 -3 -13 9 -13 42 0 33
4 45 13 43 7 -3 12 -21 12 -43z"/>
<path d="M3002 1498 c-17 -17 -17 -249 0 -266 7 -7 24 -12 39 -12 36 0 59 33
59 82 0 31 -4 38 -19 38 -16 0 -20 -8 -23 -42 -2 -23 -9 -43 -15 -46 -10 -3
-13 13 -13 57 l0 61 35 0 35 0 0 48 c0 59 -21 92 -59 92 -15 0 -32 -5 -39 -12z
m56 -61 c2 -28 -1 -37 -12 -37 -12 0 -16 11 -16 41 0 52 24 48 28 -4z"/>
<path d="M3140 1365 c0 -138 1 -145 20 -145 19 0 20 7 20 131 0 100 3 130 13
127 8 -3 13 -41 15 -132 2 -114 4 -127 20 -124 15 3 17 19 20 131 4 170 22
168 22 -3 l0 -130 24 0 c24 0 24 1 25 113 1 61 -2 126 -7 142 -8 30 -9 30 -90
33 l-82 2 0 -145z"/>
<path d="M3362 1498 c-17 -17 -17 -249 0 -266 7 -7 24 -12 39 -12 36 0 59 33
59 82 0 31 -4 38 -19 38 -16 0 -20 -8 -23 -42 -2 -23 -9 -43 -15 -46 -10 -3
-13 13 -13 57 l0 61 35 0 34 0 0 48 c-1 60 -21 92 -57 92 -16 0 -33 -5 -40
-12z m52 -34 c11 -29 7 -64 -9 -64 -11 0 -15 11 -15 40 0 40 13 53 24 24z"/>
<path d="M3500 1365 c0 -138 1 -145 20 -145 19 0 20 7 20 130 0 119 8 156 24
114 3 -9 6 -67 6 -130 0 -107 1 -114 20 -114 19 0 20 7 20 119 0 156 -6 171
-65 171 l-45 0 0 -145z"/>
</g>
</svg>
