<svg version="1.1" id="Layer_1" xmlns="http://www.w3.org/2000/svg" xmlns:xlink="http://www.w3.org/1999/xlink" x="0px" y="0px"
	 width="100%" viewBox="0 0 503 294" enable-background="new 0 0 503 294" xml:space="preserve">
<path fill="#E2F3FD" opacity="1.000000" stroke="none" 
	d="
M1.000000,294.000000 
	C1.000000,196.372086 1.000000,98.744171 1.000000,1.058130 
	C168.561371,1.058130 336.122742,1.058130 504.000000,1.058130 
	C504.000000,98.355751 504.000000,195.711838 503.537354,293.533295 
	C335.716461,293.999115 168.358231,293.999542 1.000000,294.000000 
M260.880615,65.433670 
	C259.574249,64.636971 258.267853,63.840267 256.287445,62.777966 
	C247.817535,60.757603 239.347626,58.737236 230.259476,56.223064 
	C225.837555,56.467319 221.415619,56.711571 216.133347,56.955723 
	C205.893250,57.942177 196.336792,60.869934 187.152054,66.958290 
	C181.274307,71.382042 175.111115,75.484818 169.632385,80.357254 
	C166.637436,83.020782 164.447220,86.798279 162.524643,90.409157 
	C159.687683,95.737350 157.412872,101.364838 154.134842,106.996475 
	C150.386642,106.547958 149.740753,109.310356 149.181412,111.953712 
	C147.426666,120.246658 146.509171,128.801529 143.897232,136.807968 
	C140.213943,148.098419 143.369308,158.123215 146.787231,168.649551 
	C149.995789,178.531052 153.906570,187.498123 162.395905,194.062881 
	C167.521561,198.026535 172.141754,202.641586 177.014648,206.934906 
	C185.119476,214.075745 193.244888,221.193207 201.535690,228.473343 
	C207.059769,224.300430 212.278229,220.173004 217.699188,216.331314 
	C221.074738,213.939163 222.254181,211.202164 220.832657,206.869675 
	C221.603470,206.730820 222.374588,206.469070 223.145065,206.470917 
	C248.179611,206.530487 268.971588,197.515259 284.860840,178.598648 
	C284.826385,182.005890 285.482819,185.430115 289.619568,185.203033 
	C291.703613,185.088638 295.054138,183.168106 295.425720,181.521301 
	C296.434998,177.048294 297.439606,171.924561 291.154633,168.764282 
	C297.373871,166.707016 295.561737,161.965347 296.478943,157.506912 
	C297.516266,155.391129 298.553589,153.275345 299.567657,151.891815 
	C299.587860,157.035889 299.612579,162.179932 299.626740,167.324020 
	C299.637024,171.066284 301.269836,173.414032 305.224335,173.392746 
	C308.949615,173.372665 310.422943,170.946686 310.703430,167.585083 
	C310.813507,166.265320 311.001068,164.850830 310.650391,163.623154 
	C310.321075,162.470383 309.328339,161.507126 308.627502,160.460495 
	C307.914795,161.489349 306.863068,162.429535 306.565552,163.566986 
	C306.068604,165.467056 306.053741,167.493225 305.835938,169.466324 
	C305.315918,169.399948 304.795868,169.333588 304.275848,169.267212 
	C304.275848,165.779877 304.275848,162.292542 304.275848,158.725998 
	C306.434540,158.554291 308.372070,158.400162 310.772278,158.209244 
	C310.772278,155.540649 310.830200,153.086121 310.761139,150.635162 
	C310.571198,143.894791 307.141907,141.961624 300.480652,144.588852 
	C300.027008,142.419479 299.573364,140.250122 299.747620,137.683594 
	C301.917023,135.158569 299.733063,129.948700 305.596191,128.963943 
	C310.399384,125.771851 308.377106,121.124870 308.535614,116.625648 
	C300.809113,116.012489 307.359253,124.252541 302.279358,125.445618 
	C302.279358,121.755501 302.279358,118.312614 302.279358,114.824310 
	C304.544098,114.569046 306.483185,114.350479 308.726685,114.097603 
	C308.726685,111.408180 309.230957,108.803543 308.588623,106.521660 
	C307.910034,104.110886 306.657990,101.141083 304.719330,99.979477 
	C302.017761,98.360710 299.360504,100.184700 297.427643,103.056953 
	C297.427643,103.056953 297.066711,103.216621 296.539703,102.982193 
	C295.872559,102.642456 295.205383,102.302727 294.381958,101.119904 
	C293.692535,97.808517 293.003113,94.497124 292.291321,91.078308 
	C291.354156,91.078308 290.192749,91.078308 288.948792,90.362389 
	C285.432251,82.255806 278.120148,77.685394 271.563171,71.509438 
	C268.042175,69.724739 264.521179,67.940041 260.880615,65.433670 
M314.552246,154.543823 
	C314.552246,160.628815 314.552246,166.713806 314.552246,172.798798 
	C315.145477,173.059494 315.738708,173.320190 316.331940,173.580887 
	C317.182190,172.421143 318.706879,171.294922 318.766449,170.095901 
	C319.030609,164.778107 318.832062,159.438980 318.891144,154.108566 
	C318.914948,151.958405 319.169983,149.810806 319.319824,147.662033 
	C319.906403,147.680008 320.492950,147.697998 321.079529,147.715973 
	C321.079529,156.075989 321.079529,164.436005 321.079529,172.464355 
	C325.087830,173.736938 325.837067,172.371231 325.778229,169.555038 
	C325.649506,163.394394 325.708252,157.228195 325.803436,151.066010 
	C325.821106,149.921555 326.368408,148.785263 326.671265,147.645203 
	C327.163422,147.728378 327.655609,147.811554 328.147766,147.894730 
	C328.147766,156.136566 328.147766,164.378403 328.147766,172.757111 
	C329.925720,172.757111 331.150543,172.757111 332.557983,172.757111 
	C332.557983,164.336243 332.746887,156.189774 332.393219,148.066910 
	C332.325226,146.505569 330.213318,143.836777 328.895691,143.741852 
	C324.214386,143.404602 319.468872,143.959274 314.559326,144.184784 
	C314.559326,147.593353 314.559326,150.579269 314.552246,154.543823 
M339.846375,160.618286 
	C341.897156,159.551010 343.947906,158.483719 346.584106,157.111755 
	C346.584106,154.662674 347.249817,151.183182 346.343689,148.177551 
	C345.765869,146.261047 342.836273,143.827866 341.003998,143.862930 
	C339.202515,143.897430 336.092896,146.628998 335.927063,148.399139 
	C335.310211,154.982681 335.306305,161.689926 335.892578,168.277725 
	C336.058502,170.141830 339.160980,173.265869 340.662598,173.123962 
	C342.777100,172.924118 345.438934,170.583160 346.414764,168.483063 
	C347.405823,166.350296 346.633667,163.398239 346.633667,160.655167 
	C338.745453,160.118179 345.592896,168.509399 339.861298,169.550659 
	C339.861298,166.730896 339.861298,164.155823 339.846375,160.618286 
M360.298676,144.391541 
	C357.138824,144.198685 353.978973,144.005829 350.804810,143.812088 
	C350.804810,153.959564 350.804810,163.356415 350.804810,172.663177 
	C353.937988,173.698135 354.990021,172.665497 354.928162,169.712570 
	C354.803009,163.735916 354.872437,157.754150 354.936584,151.775284 
	C354.952301,150.309372 355.256744,148.846527 355.428436,147.382278 
	C355.973694,147.418945 356.518951,147.455597 357.064209,147.492264 
	C357.064209,155.898193 357.064209,164.304108 357.064209,174.391205 
	C359.533508,172.732285 361.588806,171.986099 361.581909,171.259460 
	C361.498901,162.506729 361.110931,153.756866 360.298676,144.391541 
M365.987976,163.463287 
	C365.986420,165.628998 366.127899,167.806534 365.950348,169.957703 
	C365.673828,173.307648 367.332611,173.363632 370.471924,172.485748 
	C370.471924,160.086044 370.471924,147.745041 370.471924,134.273239 
	C368.282745,135.249725 366.354675,135.560165 366.188812,136.277893 
	C365.429321,139.564072 364.761414,142.970383 364.811768,146.322250 
	C364.892792,151.713013 365.565338,157.094879 365.987976,163.463287 
M311.641052,123.271332 
	C311.641052,125.075668 311.641052,126.880005 311.641052,128.978745 
	C313.167236,128.887650 314.387360,128.814804 315.386841,128.755142 
	C315.649231,128.186813 315.760223,128.043228 315.780975,127.887589 
	C316.956360,119.067101 313.341980,109.773972 318.391998,101.323242 
	C318.502960,101.137558 318.260742,100.740799 318.122406,100.207901 
	C316.094818,100.207901 314.023682,100.207901 311.627777,100.207901 
	C311.627777,107.727043 311.627777,115.025101 311.641052,123.271332 
z"/>
<path fill="#F6FDFF" opacity="1.000000" stroke="none" 
	d="
M1.000000,294.500000 
	C168.358231,293.999542 335.716461,293.999115 503.537354,293.999329 
	C502.666656,294.333313 501.334045,294.953796 499.999878,294.957245 
	C477.000031,295.016663 454.000000,295.000000 431.000000,295.000000 
	C287.666656,295.000000 144.333328,295.000000 1.000000,294.500000 
z"/>
<path fill="#25BDCF" opacity="1.000000" stroke="none" 
	d="
M230.877716,56.716873 
	C239.347626,58.737236 247.817535,60.757603 256.742310,63.193848 
	C257.189178,65.245430 257.006195,66.904633 257.221771,68.510323 
	C257.442963,70.158073 257.926758,71.803139 258.533447,73.356499 
	C259.039764,74.652863 259.695770,76.678719 260.621368,76.886711 
	C264.589600,77.778397 265.263672,81.229309 266.599884,84.018600 
	C265.825348,84.653587 265.348053,85.237083 264.545227,85.821686 
	C261.188293,83.214806 258.156860,80.606827 254.802841,77.721298 
	C253.227112,81.895813 250.727097,85.631081 257.575073,86.583458 
	C259.193024,86.808472 260.647125,88.211670 262.145996,89.078003 
	C262.115356,89.083107 262.081848,89.135376 261.776672,89.131729 
	C260.845612,89.465637 260.219727,89.803207 258.960510,90.482338 
	C260.387238,90.864014 261.096344,91.053719 261.900452,91.418442 
	C261.995453,91.593468 262.226349,91.917992 262.226044,92.228882 
	C262.776886,93.062256 263.328003,93.584747 263.929565,94.099747 
	C263.979980,94.092255 263.882660,94.087395 263.890289,94.405670 
	C263.929443,95.147545 263.960999,95.571144 263.583038,96.068130 
	C261.447723,96.141518 259.721893,96.141518 257.620697,96.141518 
	C258.015564,98.624702 258.359619,100.788376 258.719238,103.323547 
	C258.702118,107.428627 258.669434,111.162216 258.331787,114.998413 
	C257.070984,115.578407 256.115082,116.055786 254.942627,116.180984 
	C253.615433,114.285324 252.834702,112.143112 251.330338,111.314171 
	C247.325623,109.107468 246.809662,107.975136 249.724747,103.218651 
	C250.034866,105.196732 250.046280,106.645035 250.541504,107.902870 
	C250.829895,108.635414 251.831497,109.356148 252.629822,109.524521 
	C253.163361,109.637039 254.502502,108.685127 254.456085,108.352699 
	C254.109680,105.872360 254.268311,102.600761 252.761917,101.214592 
	C251.374924,99.938301 247.537628,99.727402 245.788589,100.758514 
	C241.512283,103.279564 242.795624,113.470406 247.298065,115.724907 
	C251.003906,117.580528 251.589584,121.236183 248.764709,124.879410 
	C246.632843,118.057579 246.632843,118.057579 243.651611,118.886841 
	C243.101624,128.346069 244.926071,130.336472 252.825470,129.192978 
	C251.228577,135.953827 256.065948,139.481628 258.596130,143.861496 
	C257.281281,144.752441 255.606598,145.584061 255.587173,146.452698 
	C255.391968,155.183319 255.468430,163.920013 255.468430,173.433975 
	C257.426514,172.813919 258.712952,172.406555 260.314056,172.025085 
	C261.400543,172.373428 262.172333,172.695862 262.965759,173.004089 
	C262.987366,172.989883 262.989319,173.041550 263.207916,173.307526 
	C264.908234,176.362366 266.389923,179.151245 267.790863,182.279510 
	C267.241058,183.932327 266.772003,185.245773 265.857300,187.807114 
	C274.481903,184.471069 279.828217,178.975571 284.940155,173.534515 
	C284.884583,175.193100 284.815552,176.463867 284.746521,177.734619 
	C268.971588,197.515259 248.179611,206.530487 223.145065,206.470917 
	C222.374588,206.469070 221.603470,206.730820 220.454239,206.929688 
	C217.055252,200.378616 214.034683,193.767517 211.294907,186.955048 
	C211.975098,186.466354 212.462708,186.250183 212.760406,185.880905 
	C216.234970,181.570572 217.831909,175.715591 223.708435,173.026031 
	C229.799652,172.630905 225.059830,167.561722 227.625824,165.666443 
	C228.015518,168.006042 228.410370,170.376648 228.806152,172.752777 
	C231.965393,172.752777 234.720047,172.752777 237.748001,172.752777 
	C237.748001,160.122238 237.748001,147.749634 237.748001,135.438232 
	C234.270004,134.198837 233.475021,136.125763 233.065094,138.767746 
	C232.361816,143.300186 231.543274,147.814728 230.773132,152.336792 
	C229.092453,147.722687 228.281372,143.023239 227.133850,138.407425 
	C226.823715,137.159927 225.494415,136.165802 224.632935,135.055374 
	C223.983109,136.321579 222.810349,137.571350 222.769974,138.856705 
	C222.540909,146.148987 222.582718,153.449799 222.417786,160.784073 
	C222.303238,160.820450 222.062881,160.818405 222.102234,160.398605 
	C222.067719,157.981857 221.993835,155.984909 221.892365,153.744247 
	C221.663635,153.201218 221.382904,153.058945 220.744049,152.900116 
	C219.311386,152.237137 218.157257,151.747726 216.672134,151.174408 
	C215.886612,151.093262 215.432068,151.096024 214.839615,150.780975 
	C213.166718,148.589615 211.631729,146.716049 210.038727,144.902817 
	C209.980713,144.963135 210.108292,144.857071 209.929749,144.523804 
	C207.520386,143.743729 205.289581,143.296921 203.097412,142.881287 
	C203.136063,142.912460 203.186111,142.826675 203.156784,142.474335 
	C201.154190,138.490707 198.411011,136.348297 193.696915,137.289185 
	C192.939423,137.100510 192.496887,137.030869 191.797821,136.691772 
	C189.685181,136.578705 187.829056,136.735107 185.720596,136.934402 
	C185.314194,137.050690 185.160141,137.124084 184.683487,137.376160 
	C179.840988,140.384216 177.442383,139.325287 176.825867,134.267670 
	C176.708450,133.304474 176.595840,132.247818 176.128326,131.437851 
	C174.807205,129.148987 173.302856,126.965851 171.633820,124.373085 
	C171.011490,125.134064 169.872604,126.526680 168.733704,127.919296 
	C168.209930,128.004501 167.686142,128.089691 167.162369,128.174896 
	C166.585754,125.595200 165.226471,122.876152 165.653961,120.475243 
	C166.076401,118.102768 167.819382,114.993614 169.836258,114.069298 
	C174.777130,111.804947 174.975082,112.236893 179.441360,116.876312 
	C182.930496,105.278168 189.137192,96.040642 201.618301,93.025497 
	C201.014984,91.127724 200.404037,89.205940 199.878662,87.553329 
	C203.019623,86.890068 205.823929,86.297890 209.129868,85.599785 
	C208.100464,87.009766 207.302643,88.102570 206.149643,89.681847 
	C207.946991,90.055634 209.350266,90.347473 212.094238,90.918137 
	C209.580002,85.141029 207.613571,80.622658 205.681976,76.184364 
	C204.141052,76.524521 203.081894,76.758324 203.148865,76.743546 
	C201.348312,75.033607 200.213074,73.955513 199.203552,72.612976 
	C200.159164,71.922295 200.989059,71.496056 202.033875,71.360886 
	C207.283447,76.084221 206.974319,67.272873 210.994949,68.875214 
	C210.137390,66.828682 209.548477,65.423256 208.959534,63.645149 
	C210.231995,58.755798 213.702820,59.355587 217.338379,60.017441 
	C217.621964,61.049866 217.662704,61.841213 217.705963,62.632416 
	C217.888168,65.964500 217.548401,69.445824 218.442017,72.574844 
	C219.014816,74.580490 222.233917,76.704254 223.575394,73.637207 
	C225.373856,69.525269 228.936401,68.654984 232.086197,66.902382 
	C235.684937,64.900002 236.114136,62.237850 233.071548,59.306763 
	C232.260910,58.525845 231.604782,57.584545 230.877716,56.716873 
M233.149429,98.646500 
	C233.117020,90.562698 231.563339,89.500900 222.952942,91.802895 
	C222.952942,104.002258 222.952942,116.235092 222.952942,128.420013 
	C232.445099,129.962921 233.130478,129.441635 233.178223,120.576538 
	C233.215866,113.589546 233.174164,106.602135 233.149429,98.646500 
M251.732788,169.114685 
	C251.743286,165.633301 251.788879,162.151550 251.754593,158.670609 
	C251.718704,155.029922 252.236282,151.211655 251.276657,147.820572 
	C250.750336,145.960648 247.281326,143.332306 245.843704,143.712753 
	C243.770889,144.261292 241.810272,147.009079 240.864014,149.264099 
	C240.414597,150.335083 242.421478,152.436783 243.521896,154.448715 
	C240.765228,157.174652 238.729919,165.825089 241.201324,170.023239 
	C242.207306,171.732101 244.966278,172.975906 247.093414,173.282883 
	C248.873169,173.539749 252.206238,173.896881 251.732788,169.114685 
M236.720627,122.064613 
	C236.720627,124.191467 236.720627,126.318329 236.720627,128.629959 
	C239.355652,129.333359 240.939285,129.244949 240.890472,125.909927 
	C240.766769,117.456055 240.849396,108.999168 240.849396,100.612717 
	C237.242172,99.150383 236.505356,100.752487 236.572327,103.707382 
	C236.704102,109.520393 236.679977,115.336952 236.720627,122.064613 
z"/>
<path fill="#133E67" opacity="1.000000" stroke="none" 
	d="
M211.014099,187.156433 
	C214.034683,193.767517 217.055252,200.378616 220.254318,207.185913 
	C222.254181,211.202164 221.074738,213.939163 217.699188,216.331314 
	C212.278229,220.173004 207.059769,224.300430 201.535690,228.473343 
	C193.244888,221.193207 185.119476,214.075745 177.014648,206.934906 
	C172.141754,202.641586 167.521561,198.026535 162.395905,194.062881 
	C153.906570,187.498123 149.995789,178.531052 146.787231,168.649551 
	C143.369308,158.123215 140.213943,148.098419 143.897232,136.807968 
	C146.509171,128.801529 147.426666,120.246658 149.181412,111.953712 
	C149.740753,109.310356 150.386642,106.547958 154.839142,107.122208 
	C156.647293,111.833374 157.751144,116.418800 158.644333,121.343994 
	C157.711258,128.293533 156.904892,134.895508 156.291870,141.515396 
	C155.760361,147.254822 156.391083,152.740280 159.840607,157.709473 
	C166.199234,166.869370 172.298721,176.209778 178.702606,185.337173 
	C180.039169,187.242142 182.227371,188.549576 184.023102,190.132385 
	C184.537521,189.723557 185.051941,189.314713 185.566376,188.905884 
	C184.665146,186.729568 184.021851,184.397614 182.818497,182.403610 
	C177.314697,173.283417 171.536285,164.326645 166.166672,155.130081 
	C165.283401,153.617325 165.947845,151.200912 165.897003,149.202133 
	C167.914474,149.619888 170.016113,149.818665 171.913849,150.547989 
	C172.859955,150.911591 173.471954,152.216995 174.168152,153.146530 
	C178.258179,158.607422 182.037766,164.337418 186.516266,169.456848 
	C189.132980,172.448044 192.855606,174.471786 196.308121,177.185455 
	C201.361725,180.678894 206.187912,183.917664 211.014099,187.156433 
z"/>
<path fill="#A5DAF0" opacity="1.000000" stroke="none" 
	d="
M158.854996,121.004227 
	C157.751144,116.418800 156.647293,111.833374 155.221054,107.056404 
	C157.412872,101.364838 159.687683,95.737350 162.524643,90.409157 
	C164.447220,86.798279 166.637436,83.020782 169.632385,80.357254 
	C175.111115,75.484818 181.274307,71.382042 187.763611,67.202164 
	C192.898849,68.568497 192.898849,68.568497 192.583862,71.133255 
	C190.329620,72.444328 188.214996,73.525421 186.587494,75.107574 
	C185.769165,75.903114 185.235550,77.838333 185.624359,78.856895 
	C186.501495,81.154640 188.032806,83.202660 189.859573,86.306534 
	C192.027863,81.643372 194.034546,77.327774 196.019073,73.002495 
	C195.996918,72.992805 195.994614,73.041107 196.246918,73.058907 
	C196.663773,73.040138 196.828308,73.003578 197.340790,72.973297 
	C198.151794,72.945534 198.614822,72.911476 199.077850,72.877419 
	C200.213074,73.955513 201.348312,75.033607 203.148865,76.743546 
	C203.081894,76.758324 204.141052,76.524521 205.681976,76.184364 
	C207.613571,80.622658 209.580002,85.141029 212.094238,90.918137 
	C209.350266,90.347473 207.946991,90.055634 206.149643,89.681847 
	C207.302643,88.102570 208.100464,87.009766 209.129868,85.599785 
	C205.823929,86.297890 203.019623,86.890068 199.878662,87.553329 
	C200.404037,89.205940 201.014984,91.127724 201.618301,93.025497 
	C189.137192,96.040642 182.930496,105.278168 179.441360,116.876312 
	C174.975082,112.236893 174.777130,111.804947 169.836258,114.069298 
	C167.819382,114.993614 166.076401,118.102768 165.653961,120.475243 
	C165.226471,122.876152 166.585754,125.595200 167.162369,128.174896 
	C167.686142,128.089691 168.209930,128.004501 168.733704,127.919296 
	C169.872604,126.526680 171.011490,125.134064 171.633820,124.373085 
	C173.302856,126.965851 174.807205,129.148987 176.128326,131.437851 
	C176.595840,132.247818 176.708450,133.304474 176.825867,134.267670 
	C177.442383,139.325287 179.840988,140.384216 184.669098,137.727417 
	C184.236771,138.630951 183.496246,139.361908 182.409149,140.064148 
	C178.803070,141.359161 176.521881,139.874924 174.368759,137.559097 
	C172.488129,135.536362 170.634628,132.565689 168.316345,132.050232 
	C162.033157,130.653137 159.939041,126.445190 158.854996,121.004227 
z"/>
<path fill="#A5D7EB" opacity="1.000000" stroke="none" 
	d="
M284.926697,173.146698 
	C279.828217,178.975571 274.481903,184.471069 265.857300,187.807114 
	C266.772003,185.245773 267.241058,183.932327 267.935364,181.967422 
	C268.736023,179.833633 269.311462,178.351334 270.170502,176.652985 
	C270.754639,175.292969 271.055176,174.149017 271.719116,172.970535 
	C274.838409,172.936005 277.594330,172.936005 280.708282,172.936005 
	C280.708282,165.298462 280.773468,158.005508 280.688263,150.714294 
	C280.616394,144.565445 278.352722,142.848694 271.766602,143.991089 
	C269.585327,144.322021 267.804352,144.665619 265.747131,144.820251 
	C263.315430,144.360641 261.159973,144.089996 259.004517,143.819336 
	C256.065948,139.481628 251.228577,135.953827 252.964752,128.839050 
	C253.705276,124.211197 254.432220,120.372177 255.159180,116.533165 
	C256.115082,116.055786 257.070984,115.578407 258.360168,115.392792 
	C258.661438,117.181793 258.589783,118.679390 258.603851,120.176186 
	C258.687744,129.117813 260.640381,130.594681 269.899872,128.272537 
	C269.899872,120.591454 269.899872,112.787720 270.214050,104.961891 
	C271.152679,104.997360 271.777069,105.054916 272.491211,105.528091 
	C272.558319,107.072876 272.535736,108.202042 272.367432,109.497742 
	C272.383057,110.340691 272.544403,111.017105 272.824707,112.064026 
	C273.788818,113.425728 274.450592,114.762848 275.520508,115.329979 
	C277.286621,116.266136 279.919189,116.012421 279.544220,119.184235 
	C279.294098,121.300278 279.171478,123.431396 278.987549,125.605713 
	C274.505890,124.553276 280.109741,116.795097 272.806519,118.286766 
	C272.708435,119.915741 272.525513,121.393349 272.548981,122.867668 
	C272.609772,126.690079 274.226257,129.527863 278.367096,129.398026 
	C282.212250,129.277466 283.790558,126.500259 283.691681,122.897675 
	C283.601105,119.597313 283.225220,116.304779 283.309601,112.976097 
	C285.383240,112.684677 287.122345,112.425949 288.919128,112.621605 
	C288.987823,117.384331 289.119202,121.696815 288.970764,125.999664 
	C288.856781,129.305130 290.386841,129.365479 292.990997,128.564072 
	C292.990997,121.374657 292.884827,114.427322 293.061829,107.487213 
	C293.109100,105.634460 294.022491,103.803795 294.538239,101.962990 
	C295.205383,102.302727 295.872559,102.642456 296.792419,103.446861 
	C297.206390,105.266350 297.367676,106.621178 297.538940,108.317871 
	C297.516266,109.113770 297.483582,109.567795 297.294800,110.241524 
	C297.279205,111.303123 297.419678,112.145020 297.585876,113.436790 
	C297.578491,116.585159 297.545380,119.283646 297.285522,122.171089 
	C297.339722,123.582687 297.620697,124.805336 298.014954,126.324677 
	C298.312012,127.002792 298.495728,127.384209 298.304596,127.808922 
	C296.810638,127.852219 295.691528,127.852219 293.892487,127.852219 
	C295.747589,131.482285 297.433624,134.781525 299.119690,138.080750 
	C299.573364,140.250122 300.027008,142.419479 300.630890,145.121399 
	C300.438477,146.397293 300.095795,147.140610 299.506592,147.772629 
	C298.191254,148.754410 297.122406,149.847519 296.005188,150.494217 
	C295.956848,148.131210 295.956848,146.214600 295.956848,144.376816 
	C286.058960,142.990799 284.884888,143.985367 284.913940,153.167847 
	C284.935028,159.827408 284.923645,166.487076 284.926697,173.146698 
z"/>
<path fill="#A5DAEF" opacity="1.000000" stroke="none" 
	d="
M262.226349,91.917992 
	C262.226349,91.917992 261.995453,91.593468 261.956970,91.066422 
	C261.972961,90.071381 262.027405,89.603378 262.081848,89.135376 
	C262.081848,89.135376 262.115356,89.083107 262.475433,89.024086 
	C263.513916,87.916901 264.192322,86.868736 264.870728,85.820580 
	C265.348053,85.237083 265.825348,84.653587 266.928650,84.006958 
	C267.772705,83.924355 267.990753,83.904884 268.585266,83.888893 
	C270.238220,83.209198 272.569702,82.544487 272.582092,81.839149 
	C272.612213,80.119530 271.902191,78.131371 270.853455,76.726746 
	C269.963409,75.534698 268.182678,75.007690 266.868134,73.843323 
	C268.599243,73.027328 270.258270,72.554420 271.917328,72.081520 
	C278.120148,77.685394 285.432251,82.255806 288.977356,91.161201 
	C288.544708,95.065552 290.387360,98.711975 286.451172,101.100098 
	C284.980774,101.300819 283.919800,101.499260 282.612732,101.480209 
	C281.881683,100.821632 281.396698,100.380531 280.799133,99.641541 
	C278.856445,99.013519 276.461273,99.301788 275.299469,98.240234 
	C271.423950,94.699142 269.272064,96.966812 266.720520,99.958603 
	C262.895050,98.605911 260.572174,100.206596 258.703674,102.952042 
	C258.359619,100.788376 258.015564,98.624702 257.620697,96.141518 
	C259.721893,96.141518 261.447723,96.141518 263.806519,95.923744 
	C264.253876,95.166451 264.068268,94.626923 263.882660,94.087395 
	C263.882660,94.087395 263.979980,94.092255 263.931641,93.784622 
	C263.330994,92.957329 262.778656,92.437660 262.226349,91.917992 
z"/>
<path fill="#363537" opacity="1.000000" stroke="none" 
	d="
M314.555786,154.054504 
	C314.559326,150.579269 314.559326,147.593353 314.559326,144.184784 
	C319.468872,143.959274 324.214386,143.404602 328.895691,143.741852 
	C330.213318,143.836777 332.325226,146.505569 332.393219,148.066910 
	C332.746887,156.189774 332.557983,164.336243 332.557983,172.757111 
	C331.150543,172.757111 329.925720,172.757111 328.147766,172.757111 
	C328.147766,164.378403 328.147766,156.136566 328.147766,147.894730 
	C327.655609,147.811554 327.163422,147.728378 326.671265,147.645203 
	C326.368408,148.785263 325.821106,149.921555 325.803436,151.066010 
	C325.708252,157.228195 325.649506,163.394394 325.778229,169.555038 
	C325.837067,172.371231 325.087830,173.736938 321.079529,172.464355 
	C321.079529,164.436005 321.079529,156.075989 321.079529,147.715973 
	C320.492950,147.697998 319.906403,147.680008 319.319824,147.662033 
	C319.169983,149.810806 318.914948,151.958405 318.891144,154.108566 
	C318.832062,159.438980 319.030609,164.778107 318.766449,170.095901 
	C318.706879,171.294922 317.182190,172.421143 316.331940,173.580887 
	C315.738708,173.320190 315.145477,173.059494 314.552246,172.798798 
	C314.552246,166.713806 314.552246,160.628815 314.555786,154.054504 
z"/>
<path fill="#26272A" opacity="1.000000" stroke="none" 
	d="
M284.940155,173.534515 
	C284.923645,166.487076 284.935028,159.827408 284.913940,153.167847 
	C284.884888,143.985367 286.058960,142.990799 295.956848,144.376816 
	C295.956848,146.214600 295.956848,148.131210 295.933838,150.936432 
	C295.958649,153.906418 296.006500,155.987778 296.054352,158.069153 
	C295.561737,161.965347 297.373871,166.707016 291.154633,168.764282 
	C297.439606,171.924561 296.434998,177.048294 295.425720,181.521301 
	C295.054138,183.168106 291.703613,185.088638 289.619568,185.203033 
	C285.482819,185.430115 284.826385,182.005890 284.803711,178.166626 
	C284.815552,176.463867 284.884583,175.193100 284.940155,173.534515 
M291.878143,154.611786 
	C291.716156,152.190842 291.554199,149.769882 291.392242,147.348938 
	C290.797974,147.383896 290.203735,147.418839 289.609467,147.453796 
	C289.609467,153.197983 289.609467,158.942169 289.609467,164.686356 
	C290.135620,164.746460 290.661774,164.806580 291.187927,164.866684 
	C291.417389,161.758255 291.646851,158.649826 291.878143,154.611786 
M290.362732,173.156738 
	C289.846954,175.996292 289.331177,178.835831 288.815399,181.675385 
	C289.737762,181.730942 290.660126,181.786499 291.582520,181.842056 
	C291.435547,179.052048 291.288574,176.262039 290.362732,173.156738 
z"/>
<path fill="#2E2D2F" opacity="1.000000" stroke="none" 
	d="
M339.853821,161.099518 
	C339.861298,164.155823 339.861298,166.730896 339.861298,169.550659 
	C345.592896,168.509399 338.745453,160.118179 346.633667,160.655167 
	C346.633667,163.398239 347.405823,166.350296 346.414764,168.483063 
	C345.438934,170.583160 342.777100,172.924118 340.662598,173.123962 
	C339.160980,173.265869 336.058502,170.141830 335.892578,168.277725 
	C335.306305,161.689926 335.310211,154.982681 335.927063,148.399139 
	C336.092896,146.628998 339.202515,143.897430 341.003998,143.862930 
	C342.836273,143.827866 345.765869,146.261047 346.343689,148.177551 
	C347.249817,151.183182 346.584106,154.662674 346.584106,157.111755 
	C343.947906,158.483719 341.897156,159.551010 339.853821,161.099518 
z"/>
<path fill="#363537" opacity="1.000000" stroke="none" 
	d="
M360.550568,144.698914 
	C361.110931,153.756866 361.498901,162.506729 361.581909,171.259460 
	C361.588806,171.986099 359.533508,172.732285 357.064209,174.391205 
	C357.064209,164.304108 357.064209,155.898193 357.064209,147.492264 
	C356.518951,147.455597 355.973694,147.418945 355.428436,147.382278 
	C355.256744,148.846527 354.952301,150.309372 354.936584,151.775284 
	C354.872437,157.754150 354.803009,163.735916 354.928162,169.712570 
	C354.990021,172.665497 353.937988,173.698135 350.804810,172.663177 
	C350.804810,163.356415 350.804810,153.959564 350.804810,143.812088 
	C353.978973,144.005829 357.138824,144.198685 360.550568,144.698914 
z"/>
<path fill="#2F2F31" opacity="1.000000" stroke="none" 
	d="
M299.753143,147.883942 
	C300.095795,147.140610 300.438477,146.397293 300.859985,145.354782 
	C307.141907,141.961624 310.571198,143.894791 310.761139,150.635162 
	C310.830200,153.086121 310.772278,155.540649 310.772278,158.209244 
	C308.372070,158.400162 306.434540,158.554291 304.275848,158.725998 
	C304.275848,162.292542 304.275848,165.779877 304.275848,169.267212 
	C304.795868,169.333588 305.315918,169.399948 305.835938,169.466324 
	C306.053741,167.493225 306.068604,165.467056 306.565552,163.566986 
	C306.863068,162.429535 307.914795,161.489349 308.627502,160.460495 
	C309.328339,161.507126 310.321075,162.470383 310.650391,163.623154 
	C311.001068,164.850830 310.813507,166.265320 310.703430,167.585083 
	C310.422943,170.946686 308.949615,173.372665 305.224335,173.392746 
	C301.269836,173.414032 299.637024,171.066284 299.626740,167.324020 
	C299.612579,162.179932 299.587860,157.035889 299.714386,151.132675 
	C299.825134,149.543671 299.789154,148.713806 299.753143,147.883942 
z"/>
<path fill="#2F2F31" opacity="1.000000" stroke="none" 
	d="
M297.512238,121.982140 
	C297.545380,119.283646 297.578491,116.585159 297.701660,113.073395 
	C297.678131,111.514023 297.564514,110.767921 297.450867,110.021828 
	C297.483582,109.567795 297.516266,109.113770 297.682617,107.923981 
	C297.816956,105.792610 297.817657,104.396996 297.818359,103.001389 
	C299.360504,100.184700 302.017761,98.360710 304.719330,99.979477 
	C306.657990,101.141083 307.910034,104.110886 308.588623,106.521660 
	C309.230957,108.803543 308.726685,111.408180 308.726685,114.097603 
	C306.483185,114.350479 304.544098,114.569046 302.279358,114.824310 
	C302.279358,118.312614 302.279358,121.755501 302.279358,125.445618 
	C307.359253,124.252541 300.809113,116.012489 308.535614,116.625648 
	C308.377106,121.124870 310.399384,125.771851 304.889099,129.096130 
	C302.347809,128.740768 300.513611,128.253204 298.679443,127.765625 
	C298.495728,127.384209 298.312012,127.002792 298.024292,125.914703 
	C297.784271,124.132729 297.648254,123.057434 297.512238,121.982140 
z"/>
<path fill="#A5DAEF" opacity="1.000000" stroke="none" 
	d="
M230.568604,56.469971 
	C231.604782,57.584545 232.260910,58.525845 233.071548,59.306763 
	C236.114136,62.237850 235.684937,64.900002 232.086197,66.902382 
	C228.936401,68.654984 225.373856,69.525269 223.575394,73.637207 
	C222.233917,76.704254 219.014816,74.580490 218.442017,72.574844 
	C217.548401,69.445824 217.888168,65.964500 217.705963,62.632416 
	C217.662704,61.841213 217.621964,61.049866 217.314865,59.667900 
	C217.031021,58.370087 217.012360,57.662952 216.993698,56.955822 
	C221.415619,56.711571 225.837555,56.467319 230.568604,56.469971 
z"/>
<path fill="#222023" opacity="1.000000" stroke="none" 
	d="
M365.987976,162.971893 
	C365.565338,157.094879 364.892792,151.713013 364.811768,146.322250 
	C364.761414,142.970383 365.429321,139.564072 366.188812,136.277893 
	C366.354675,135.560165 368.282745,135.249725 370.471924,134.273239 
	C370.471924,147.745041 370.471924,160.086044 370.471924,172.485748 
	C367.332611,173.363632 365.673828,173.307648 365.950348,169.957703 
	C366.127899,167.806534 365.986420,165.628998 365.987976,162.971893 
z"/>
<path fill="#222023" opacity="1.000000" stroke="none" 
	d="
M286.860596,101.097801 
	C290.387360,98.711975 288.544708,95.065552 289.018616,91.519165 
	C290.192749,91.078308 291.354156,91.078308 292.291321,91.078308 
	C293.003113,94.497124 293.692535,97.808517 294.460083,101.541443 
	C294.022491,103.803795 293.109100,105.634460 293.061829,107.487213 
	C292.884827,114.427322 292.990997,121.374657 292.990997,128.564072 
	C290.386841,129.365479 288.856781,129.305130 288.970764,125.999664 
	C289.119202,121.696815 288.987823,117.384331 288.984833,112.180740 
	C288.282074,107.889587 287.571350,104.493698 286.860596,101.097801 
z"/>
<path fill="#2F2F31" opacity="1.000000" stroke="none" 
	d="
M311.634399,122.797249 
	C311.627777,115.025101 311.627777,107.727043 311.627777,100.207901 
	C314.023682,100.207901 316.094818,100.207901 318.122406,100.207901 
	C318.260742,100.740799 318.502960,101.137558 318.391998,101.323242 
	C313.341980,109.773972 316.956360,119.067101 315.780975,127.887589 
	C315.760223,128.043228 315.649231,128.186813 315.386841,128.755142 
	C314.387360,128.814804 313.167236,128.887650 311.641052,128.978745 
	C311.641052,126.880005 311.641052,125.075668 311.634399,122.797249 
z"/>
<path fill="#7CD3E7" opacity="1.000000" stroke="none" 
	d="
M216.563522,56.955772 
	C217.012360,57.662952 217.031021,58.370087 217.073181,59.426754 
	C213.702820,59.355587 210.231995,58.755798 208.609100,63.571472 
	C203.751221,60.932270 202.867355,61.184639 200.858154,66.255714 
	C199.470200,68.383698 198.232925,70.196465 196.754608,72.099586 
	C196.340576,72.473671 196.167603,72.757385 195.994614,73.041107 
	C195.994614,73.041107 195.996918,72.992805 195.706772,72.946487 
	C194.585999,72.303543 193.755371,71.706924 192.924744,71.110298 
	C192.898849,68.568497 192.898849,68.568497 188.125244,67.176544 
	C196.336792,60.869934 205.893250,57.942177 216.563522,56.955772 
M194.620483,67.057594 
	C194.759964,67.562920 194.899445,68.068245 195.038910,68.573586 
	C195.559433,68.063759 196.079941,67.553940 196.600449,67.044113 
	C196.084869,66.908218 195.569305,66.772324 194.620483,67.057594 
z"/>
<path fill="#9ED9F0" opacity="1.000000" stroke="none" 
	d="
M268.208832,83.885406 
	C267.990753,83.904884 267.772705,83.924355 267.225891,83.955460 
	C265.263672,81.229309 264.589600,77.778397 260.621368,76.886711 
	C259.695770,76.678719 259.039764,74.652863 258.533447,73.356499 
	C257.926758,71.803139 257.442963,70.158073 257.221771,68.510323 
	C257.006195,66.904633 257.189178,65.245430 257.079346,63.326645 
	C258.267853,63.840267 259.574249,64.636971 261.014099,66.102859 
	C262.463654,67.821899 263.779755,68.871742 265.051025,69.962173 
	C265.006226,70.002762 264.924988,70.092377 264.598999,70.141869 
	C264.591064,71.474831 264.909180,72.758293 265.321106,74.344620 
	C267.908966,77.254158 269.862854,80.024193 268.208832,83.885406 
z"/>
<path fill="#96C8DA" opacity="1.000000" stroke="none" 
	d="
M298.304596,127.808929 
	C300.513611,128.253204 302.347809,128.740768 304.553711,129.258179 
	C299.733063,129.948700 301.917023,135.158569 299.433655,137.882172 
	C297.433624,134.781525 295.747589,131.482285 293.892487,127.852219 
	C295.691528,127.852219 296.810638,127.852219 298.304596,127.808929 
z"/>
<path fill="#7CD3E7" opacity="1.000000" stroke="none" 
	d="
M265.227295,74.041756 
	C264.909180,72.758293 264.591064,71.474831 264.680786,70.270447 
	C265.190674,70.387024 265.292786,70.424530 265.394867,70.462029 
	C265.295197,70.281883 265.195526,70.101738 265.095856,69.921585 
	C263.779755,68.871742 262.463654,67.821899 261.073853,66.463699 
	C264.521179,67.940041 268.042175,69.724739 271.740234,71.795479 
	C270.258270,72.554420 268.599243,73.027328 266.607727,73.810883 
	C265.925934,74.094940 265.576599,74.068352 265.227295,74.041756 
z"/>
<path fill="#7AB0B7" opacity="1.000000" stroke="none" 
	d="
M299.506592,147.772629 
	C299.789154,148.713806 299.825134,149.543671 299.726013,150.766541 
	C298.553589,153.275345 297.516266,155.391129 296.266663,157.788025 
	C296.006500,155.987778 295.958649,153.906418 295.982178,151.382843 
	C297.122406,149.847519 298.191254,148.754410 299.506592,147.772629 
z"/>
<path fill="#7AB0B7" opacity="1.000000" stroke="none" 
	d="
M297.622986,103.029175 
	C297.817657,104.396996 297.816956,105.792610 297.672607,107.582108 
	C297.367676,106.621178 297.206390,105.266350 297.055908,103.564072 
	C297.066711,103.216621 297.427643,103.056953 297.622986,103.029175 
z"/>
<path fill="#A9DAF0" opacity="1.000000" stroke="none" 
	d="
M182.755707,140.092865 
	C183.496246,139.361908 184.236771,138.630951 184.991699,137.548737 
	C185.160141,137.124084 185.314194,137.050690 185.783051,137.288330 
	C188.506668,141.337845 190.354919,139.844070 192.054352,136.961243 
	C192.496887,137.030869 192.939423,137.100510 193.794434,137.594574 
	C197.199966,139.621582 200.193039,141.224136 203.186111,142.826675 
	C203.186111,142.826675 203.136063,142.912460 203.305725,143.186401 
	C205.686340,143.925919 207.897324,144.391495 210.108292,144.857071 
	C210.108292,144.857071 209.980713,144.963135 210.153229,145.288925 
	C210.549667,147.742340 210.773621,149.869980 210.768906,152.012756 
	C210.279358,152.140808 210.018463,152.253723 209.757584,152.366638 
	C209.839020,152.483856 209.920441,152.601074 210.001862,152.718307 
	C210.335052,152.479553 210.668243,152.240799 211.329437,152.034302 
	C212.764160,151.743973 213.870850,151.421387 214.977539,151.098801 
	C215.432068,151.096024 215.886612,151.093262 216.737320,151.540833 
	C217.437027,153.723389 217.340332,155.681366 218.154892,157.125275 
	C218.996170,158.616608 220.723282,159.608200 222.062881,160.818405 
	C222.062881,160.818405 222.303238,160.820450 222.460938,161.275253 
	C222.854630,165.509369 223.090622,169.288681 223.326614,173.067993 
	C217.831909,175.715591 216.234970,181.570572 212.760406,185.880905 
	C212.462708,186.250183 211.975098,186.466354 211.294907,186.955048 
	C206.187912,183.917664 201.361725,180.678894 196.322388,176.799011 
	C195.187180,173.897980 194.883865,170.491898 193.225159,169.596466 
	C188.549438,167.072250 186.420990,162.672729 183.271515,158.960693 
	C180.603592,155.816238 180.912247,152.680954 181.420242,149.231537 
	C181.868774,146.185822 182.310822,143.139130 182.755707,140.092865 
z"/>
<path fill="#232428" opacity="1.000000" stroke="none" 
	d="
M223.708435,173.026031 
	C223.090622,169.288681 222.854630,165.509369 222.575470,161.238876 
	C222.582718,153.449799 222.540909,146.148987 222.769974,138.856705 
	C222.810349,137.571350 223.983109,136.321579 224.632935,135.055374 
	C225.494415,136.165802 226.823715,137.159927 227.133850,138.407425 
	C228.281372,143.023239 229.092453,147.722687 230.773132,152.336792 
	C231.543274,147.814728 232.361816,143.300186 233.065094,138.767746 
	C233.475021,136.125763 234.270004,134.198837 237.748001,135.438232 
	C237.748001,147.749634 237.748001,160.122238 237.748001,172.752777 
	C234.720047,172.752777 231.965393,172.752777 228.806152,172.752777 
	C228.410370,170.376648 228.015518,168.006042 227.625824,165.666443 
	C225.059830,167.561722 229.799652,172.630905 223.708435,173.026031 
z"/>
<path fill="#232629" opacity="1.000000" stroke="none" 
	d="
M233.158569,99.130707 
	C233.174164,106.602135 233.215866,113.589546 233.178223,120.576538 
	C233.130478,129.441635 232.445099,129.962921 222.952942,128.420013 
	C222.952942,116.235092 222.952942,104.002258 222.952942,91.802895 
	C231.563339,89.500900 233.117020,90.562698 233.158569,99.130707 
M226.824371,123.013443 
	C227.093872,123.553688 227.363373,124.093925 227.632858,124.634163 
	C228.108124,123.923691 228.991302,123.216194 228.996506,122.502304 
	C229.059341,113.885750 229.005844,105.268127 228.925583,96.651314 
	C228.920837,96.142303 228.428696,95.637825 228.163361,95.131233 
	C227.732178,95.179306 227.300995,95.227379 226.869812,95.275452 
	C226.869812,104.218681 226.869812,113.161911 226.824371,123.013443 
z"/>
<path fill="#223135" opacity="1.000000" stroke="none" 
	d="
M258.596130,143.861481 
	C261.159973,144.089996 263.315430,144.360641 265.810425,145.214996 
	C266.426636,148.531494 266.703339,151.264267 266.904419,154.421600 
	C266.891998,156.564941 266.955170,158.283722 266.963928,160.250671 
	C266.939728,160.665466 266.969879,160.832123 266.916931,161.451874 
	C266.739532,165.549911 266.645203,169.194870 266.195740,172.876984 
	C264.890167,172.956619 263.939728,172.999084 262.989319,173.041550 
	C262.989319,173.041550 262.987366,172.989883 262.880859,172.660339 
	C262.588898,171.198517 262.403473,170.066238 262.256592,168.471344 
	C262.292938,161.186234 262.290680,154.363724 262.288422,147.541199 
	C261.536621,147.551483 260.784790,147.561752 260.032990,147.572037 
	C260.032990,154.714218 260.032990,161.856415 259.962189,169.369980 
	C259.927399,170.493958 259.963379,171.246567 259.999390,171.999176 
	C258.712952,172.406555 257.426514,172.813919 255.468430,173.433975 
	C255.468430,163.920013 255.391968,155.183319 255.587173,146.452698 
	C255.606598,145.584061 257.281281,144.752441 258.596130,143.861481 
z"/>
<path fill="#202D31" opacity="1.000000" stroke="none" 
	d="
M251.738312,169.563019 
	C252.206238,173.896881 248.873169,173.539749 247.093414,173.282883 
	C244.966278,172.975906 242.207306,171.732101 241.201324,170.023239 
	C238.729919,165.825089 240.765228,157.174652 243.521896,154.448715 
	C242.421478,152.436783 240.414597,150.335083 240.864014,149.264099 
	C241.810272,147.009079 243.770889,144.261292 245.843704,143.712753 
	C247.281326,143.332306 250.750336,145.960648 251.276657,147.820572 
	C252.236282,151.211655 251.718704,155.029922 251.754593,158.670609 
	C251.788879,162.151550 251.743286,165.633301 251.738312,169.563019 
M247.646606,160.058899 
	C246.845306,159.726486 246.044022,159.394073 245.242737,159.061646 
	C245.242737,162.544220 245.242737,166.026794 245.242737,169.509369 
	C246.055878,169.489731 246.869019,169.470108 247.682159,169.450470 
	C247.682159,166.602814 247.682159,163.755157 247.646606,160.058899 
z"/>
<path fill="#2B2F33" opacity="1.000000" stroke="none" 
	d="
M258.719238,103.323547 
	C260.572174,100.206596 262.895050,98.605911 266.898926,100.221405 
	C268.251556,102.017212 269.075714,103.500595 269.899872,104.983978 
	C269.899872,112.787720 269.899872,120.591454 269.899872,128.272537 
	C260.640381,130.594681 258.687744,129.117813 258.603851,120.176186 
	C258.589783,118.679390 258.661438,117.181793 258.665100,115.290176 
	C258.669434,111.162216 258.702118,107.428627 258.719238,103.323547 
M262.813110,117.907082 
	C262.930542,120.507874 263.047943,123.108658 263.165344,125.709450 
	C263.767120,125.686081 264.368927,125.662712 264.970703,125.639336 
	C264.970703,121.715149 264.970703,117.790962 264.970703,113.866776 
	C264.655884,113.797043 264.341034,113.727310 264.026215,113.657578 
	C263.627991,114.795517 263.229767,115.933464 262.813110,117.907082 
z"/>
<path fill="#222D32" opacity="1.000000" stroke="none" 
	d="
M254.942627,116.180984 
	C254.432220,120.372177 253.705276,124.211197 252.839050,128.404144 
	C244.926071,130.336472 243.101624,128.346069 243.651611,118.886841 
	C246.632843,118.057579 246.632843,118.057579 248.764709,124.879410 
	C251.589584,121.236183 251.003906,117.580528 247.298065,115.724907 
	C242.795624,113.470406 241.512283,103.279564 245.788589,100.758514 
	C247.537628,99.727402 251.374924,99.938301 252.761917,101.214592 
	C254.268311,102.600761 254.109680,105.872360 254.456085,108.352699 
	C254.502502,108.685127 253.163361,109.637039 252.629822,109.524521 
	C251.831497,109.356148 250.829895,108.635414 250.541504,107.902870 
	C250.046280,106.645035 250.034866,105.196732 249.724747,103.218651 
	C246.809662,107.975136 247.325623,109.107468 251.330338,111.314171 
	C252.834702,112.143112 253.615433,114.285324 254.942627,116.180984 
z"/>
<path fill="#232629" opacity="1.000000" stroke="none" 
	d="
M236.720490,121.608322 
	C236.679977,115.336952 236.704102,109.520393 236.572327,103.707382 
	C236.505356,100.752487 237.242172,99.150383 240.849396,100.612717 
	C240.849396,108.999168 240.766769,117.456055 240.890472,125.909927 
	C240.939285,129.244949 239.355652,129.333359 236.720627,128.629959 
	C236.720627,126.318329 236.720627,124.191467 236.720490,121.608322 
z"/>
<path fill="#7CD3E7" opacity="1.000000" stroke="none" 
	d="
M264.545227,85.821686 
	C264.192322,86.868736 263.513916,87.916901 262.506042,89.018982 
	C260.647125,88.211670 259.193024,86.808472 257.575073,86.583458 
	C250.727097,85.631081 253.227112,81.895813 254.802841,77.721298 
	C258.156860,80.606827 261.188293,83.214806 264.545227,85.821686 
z"/>
<path fill="#9ED9F0" opacity="1.000000" stroke="none" 
	d="
M201.008850,65.940491 
	C202.867355,61.184639 203.751221,60.932270 208.609131,63.944153 
	C209.548477,65.423256 210.137390,66.828682 210.994949,68.875214 
	C206.974319,67.272873 207.283447,76.084221 202.118851,71.006241 
	C203.019562,69.015739 204.050247,67.670967 205.080933,66.326187 
	C204.933411,65.965179 204.785889,65.604172 204.638367,65.243164 
	C203.428528,65.475609 202.218689,65.708054 201.008850,65.940491 
z"/>
<path fill="#A5DAF0" opacity="1.000000" stroke="none" 
	d="
M222.102234,160.398605 
	C220.723282,159.608200 218.996170,158.616608 218.154892,157.125275 
	C217.340332,155.681366 217.437027,153.723389 217.068314,151.624756 
	C218.157257,151.747726 219.311386,152.237137 220.847137,153.093506 
	C221.409149,153.701843 221.639542,153.877670 221.919952,153.987961 
	C221.993835,155.984909 222.067719,157.981857 222.102234,160.398605 
z"/>
<path fill="#44C6D8" opacity="1.000000" stroke="none" 
	d="
M200.858154,66.255707 
	C202.218689,65.708054 203.428528,65.475609 204.638367,65.243164 
	C204.785889,65.604172 204.933411,65.965179 205.080933,66.326187 
	C204.050247,67.670967 203.019562,69.015739 201.903900,70.715164 
	C200.989059,71.496056 200.159164,71.922295 199.203552,72.612976 
	C198.614822,72.911476 198.151794,72.945534 197.343323,72.733955 
	C196.997864,72.488319 196.995636,72.009224 196.995636,72.009224 
	C198.232925,70.196465 199.470200,68.383698 200.858154,66.255707 
z"/>
<path fill="#A5DAF0" opacity="1.000000" stroke="none" 
	d="
M203.156784,142.474335 
	C200.193039,141.224136 197.199966,139.621582 194.109375,137.713623 
	C198.411011,136.348297 201.154190,138.490707 203.156784,142.474335 
z"/>
<path fill="#25AFBE" opacity="1.000000" stroke="none" 
	d="
M263.207916,173.307526 
	C263.939728,172.999084 264.890167,172.956619 266.503052,173.028061 
	C268.072662,174.384308 268.979767,175.626663 269.886902,176.869034 
	C269.311462,178.351334 268.736023,179.833633 268.016113,181.628036 
	C266.389923,179.151245 264.908234,176.362366 263.207916,173.307526 
z"/>
<path fill="#A5DAF0" opacity="1.000000" stroke="none" 
	d="
M214.839615,150.781006 
	C213.870850,151.421387 212.764160,151.743973 211.328735,152.033264 
	C211.000000,152.000000 210.997559,151.997604 210.997559,151.997604 
	C210.773621,149.869980 210.549667,147.742340 210.211243,145.228607 
	C211.631729,146.716049 213.166718,148.589615 214.839615,150.781006 
z"/>
<path fill="#A5DAF0" opacity="1.000000" stroke="none" 
	d="
M191.797821,136.691772 
	C190.354919,139.844070 188.506668,141.337845 186.035400,137.245453 
	C187.829056,136.735107 189.685181,136.578705 191.797821,136.691772 
z"/>
<path fill="#A5DAF0" opacity="1.000000" stroke="none" 
	d="
M209.929749,144.523804 
	C207.897324,144.391495 205.686340,143.925919 203.267059,143.155228 
	C205.289581,143.296921 207.520386,143.743729 209.929749,144.523804 
z"/>
<path fill="#25AFBE" opacity="1.000000" stroke="none" 
	d="
M262.218048,168.933945 
	C262.403473,170.066238 262.588898,171.198517 262.859253,172.674561 
	C262.172333,172.695862 261.400543,172.373428 260.314056,172.025085 
	C259.963379,171.246567 259.927399,170.493958 260.326508,169.370728 
	C261.247101,168.978058 261.732574,168.956009 262.218048,168.933945 
z"/>
<path fill="#7CD3E7" opacity="1.000000" stroke="none" 
	d="
M261.776672,89.131729 
	C262.027405,89.603378 261.972961,90.071381 261.862000,90.891403 
	C261.096344,91.053719 260.387238,90.864014 258.960510,90.482338 
	C260.219727,89.803207 260.845612,89.465637 261.776672,89.131729 
z"/>
<path fill="#7CD3E7" opacity="1.000000" stroke="none" 
	d="
M262.226044,92.228882 
	C262.778656,92.437660 263.330994,92.957329 263.881226,93.792114 
	C263.328003,93.584747 262.776886,93.062256 262.226044,92.228882 
z"/>
<path fill="#7CD3E7" opacity="1.000000" stroke="none" 
	d="
M263.890289,94.405670 
	C264.068268,94.626923 264.253876,95.166451 264.216003,95.850357 
	C263.960999,95.571144 263.929443,95.147545 263.890289,94.405670 
z"/>
<path fill="#A9DAF0" opacity="1.000000" stroke="none" 
	d="
M221.892365,153.744247 
	C221.639542,153.877670 221.409149,153.701843 221.125671,153.267090 
	C221.382904,153.058945 221.663635,153.201218 221.892365,153.744247 
z"/>
<path fill="#24BACD" opacity="1.000000" stroke="none" 
	d="
M182.409164,140.064148 
	C182.310822,143.139130 181.868774,146.185822 181.420242,149.231537 
	C180.912247,152.680954 180.603592,155.816238 183.271515,158.960693 
	C186.420990,162.672729 188.549438,167.072250 193.225159,169.596466 
	C194.883865,170.491898 195.187180,173.897980 196.094971,176.544342 
	C192.855606,174.471786 189.132980,172.448044 186.516266,169.456848 
	C182.037766,164.337418 178.258179,158.607422 174.168152,153.146530 
	C173.471954,152.216995 172.859955,150.911591 171.913849,150.547989 
	C170.016113,149.818665 167.914474,149.619888 165.897003,149.202133 
	C165.947845,151.200912 165.283401,153.617325 166.166672,155.130081 
	C171.536285,164.326645 177.314697,173.283417 182.818497,182.403610 
	C184.021851,184.397614 184.665146,186.729568 185.566376,188.905884 
	C185.051941,189.314713 184.537521,189.723557 184.023102,190.132385 
	C182.227371,188.549576 180.039169,187.242142 178.702606,185.337173 
	C172.298721,176.209778 166.199234,166.869370 159.840607,157.709473 
	C156.391083,152.740280 155.760361,147.254822 156.291870,141.515396 
	C156.904892,134.895508 157.711258,128.293533 158.644333,121.343994 
	C159.939041,126.445190 162.033157,130.653137 168.316345,132.050232 
	C170.634628,132.565689 172.488129,135.536362 174.368759,137.559097 
	C176.521881,139.874924 178.803070,141.359161 182.409164,140.064148 
z"/>
<path fill="#2DC2D3" opacity="1.000000" stroke="none" 
	d="
M192.583862,71.133255 
	C193.755371,71.706924 194.585999,72.303543 195.728928,72.956177 
	C194.034546,77.327774 192.027863,81.643372 189.859573,86.306534 
	C188.032806,83.202660 186.501495,81.154640 185.624359,78.856895 
	C185.235550,77.838333 185.769165,75.903114 186.587494,75.107574 
	C188.214996,73.525421 190.329620,72.444328 192.583862,71.133255 
z"/>
<path fill="#2DC2D3" opacity="1.000000" stroke="none" 
	d="
M196.754608,72.099586 
	C196.995636,72.009224 196.997864,72.488319 196.995346,72.727661 
	C196.828308,73.003578 196.663773,73.040138 196.246918,73.058907 
	C196.167603,72.757385 196.340576,72.473671 196.754608,72.099586 
z"/>
<path fill="#283033" opacity="1.000000" stroke="none" 
	d="
M272.166870,144.003769 
	C278.352722,142.848694 280.616394,144.565445 280.688263,150.714294 
	C280.773468,158.005508 280.708282,165.298462 280.708282,172.936005 
	C277.594330,172.936005 274.838409,172.936005 271.697174,172.902618 
	C271.311829,172.869247 271.204651,172.779831 271.155762,172.564911 
	C271.106903,172.349976 270.858673,171.985657 270.813934,171.767609 
	C270.614014,171.283478 270.395569,171.088058 270.088684,170.633881 
	C269.905853,169.896149 269.748260,169.487869 269.606689,168.617813 
	C269.593933,165.076050 269.565125,161.996048 269.671631,158.612457 
	C269.867798,157.871765 269.928711,157.434662 270.217285,156.804718 
	C270.951630,155.998413 271.458344,155.384933 272.224792,154.678772 
	C272.315338,154.112961 272.146118,153.639816 271.652496,153.110565 
	C270.889893,153.028534 270.451660,153.002609 269.905334,152.568130 
	C270.587097,149.440979 271.376984,146.722382 272.166870,144.003769 
z"/>
<path fill="#282C31" opacity="1.000000" stroke="none" 
	d="
M280.911713,99.939430 
	C281.396698,100.380531 281.881683,100.821632 282.645508,101.803047 
	C283.052155,104.275070 283.756561,106.450279 283.083588,108.043816 
	C282.702148,108.947037 280.061981,108.896408 278.053741,109.365356 
	C279.843323,110.690254 281.409210,111.849525 282.975037,113.008789 
	C283.225220,116.304779 283.601105,119.597313 283.691681,122.897675 
	C283.790558,126.500259 282.212250,129.277466 278.367096,129.398026 
	C274.226257,129.527863 272.609772,126.690079 272.548981,122.867668 
	C272.525513,121.393349 272.708435,119.915741 272.806519,118.286766 
	C280.109741,116.795097 274.505890,124.553276 278.987549,125.605713 
	C279.171478,123.431396 279.294098,121.300278 279.544220,119.184235 
	C279.919189,116.012421 277.286621,116.266136 275.520508,115.329979 
	C274.450592,114.762848 273.788818,113.425728 272.886597,111.770073 
	C272.723999,110.514137 272.618561,109.922668 272.513123,109.331200 
	C272.535736,108.202042 272.558319,107.072876 272.638580,105.151886 
	C273.631683,99.535683 277.114197,99.444862 280.911713,99.939430 
z"/>
<path fill="#31B5C5" opacity="1.000000" stroke="none" 
	d="
M283.309631,112.976097 
	C281.409210,111.849525 279.843323,110.690254 278.053741,109.365356 
	C280.061981,108.896408 282.702148,108.947037 283.083588,108.043816 
	C283.756561,106.450279 283.052155,104.275070 282.891571,102.020523 
	C283.919800,101.499260 284.980774,101.300819 286.451172,101.100098 
	C287.571350,104.493698 288.282074,107.889587 288.927124,111.726349 
	C287.122345,112.425949 285.383240,112.684677 283.309631,112.976097 
z"/>
<path fill="#25BDCF" opacity="1.000000" stroke="none" 
	d="
M269.536316,158.916046 
	C269.565125,161.996048 269.593933,165.076050 269.462524,168.814270 
	C269.572845,169.969437 269.843384,170.466370 270.113922,170.963303 
	C270.395569,171.088058 270.614014,171.283478 270.584534,171.798737 
	C270.223602,172.251862 270.047333,172.455795 269.871063,172.659729 
	C270.315582,172.699783 270.760132,172.739807 271.204651,172.779831 
	C271.204651,172.779831 271.311829,172.869247 271.333801,172.937164 
	C271.055176,174.149017 270.754639,175.292969 270.170502,176.652985 
	C268.979767,175.626663 268.072662,174.384308 266.858215,172.990875 
	C266.645203,169.194870 266.739532,165.549911 267.077850,161.364441 
	C267.380646,160.718140 267.515564,160.560623 267.484985,160.515549 
	C267.356354,160.326233 267.178284,160.170532 267.018311,160.002518 
	C266.955170,158.283722 266.891998,156.564941 267.242859,154.412277 
	C268.442383,153.644501 269.227936,153.310593 270.013458,152.976669 
	C270.451660,153.002609 270.889893,153.028534 271.654480,153.378448 
	C271.975586,154.058777 271.970306,154.415131 271.965027,154.771469 
	C271.458344,155.384933 270.951630,155.998413 270.009705,156.925125 
	C269.561737,157.797592 269.549011,158.356827 269.536316,158.916046 
z"/>
<path fill="#31B5C5" opacity="1.000000" stroke="none" 
	d="
M280.799133,99.641541 
	C277.114197,99.444862 273.631683,99.535683 272.548859,104.736267 
	C271.777069,105.054916 271.152679,104.997360 270.214050,104.961884 
	C269.075714,103.500595 268.251556,102.017212 267.249023,100.271027 
	C269.272064,96.966812 271.423950,94.699142 275.299469,98.240234 
	C276.461273,99.301788 278.856445,99.013519 280.799133,99.641541 
z"/>
<path fill="#25AFBE" opacity="1.000000" stroke="none" 
	d="
M269.905334,152.568130 
	C269.227936,153.310593 268.442383,153.644501 267.318420,153.987732 
	C266.703339,151.264267 266.426636,148.531494 266.086670,145.403976 
	C267.804352,144.665619 269.585327,144.322021 271.766602,143.991089 
	C271.376984,146.722382 270.587097,149.440979 269.905334,152.568130 
z"/>
<path fill="#7AB0B7" opacity="1.000000" stroke="none" 
	d="
M297.285522,122.171089 
	C297.648254,123.057434 297.784271,124.132729 297.910950,125.618004 
	C297.620697,124.805336 297.339722,123.582687 297.285522,122.171089 
z"/>
<path fill="#31B5C5" opacity="1.000000" stroke="none" 
	d="
M272.367432,109.497742 
	C272.618561,109.922668 272.723999,110.514137 272.767609,111.399567 
	C272.544403,111.017105 272.383057,110.340691 272.367432,109.497742 
z"/>
<path fill="#7AB0B7" opacity="1.000000" stroke="none" 
	d="
M297.294800,110.241524 
	C297.564514,110.767921 297.678131,111.514023 297.675964,112.623520 
	C297.419678,112.145020 297.279205,111.303123 297.294800,110.241524 
z"/>
<path fill="#44C6D8" opacity="1.000000" stroke="none" 
	d="
M265.321106,74.344620 
	C265.576599,74.068352 265.925934,74.094940 266.535645,74.153976 
	C268.182678,75.007690 269.963409,75.534698 270.853455,76.726746 
	C271.902191,78.131371 272.612213,80.119530 272.582092,81.839149 
	C272.569702,82.544487 270.238220,83.209198 268.585266,83.888893 
	C269.862854,80.024193 267.908966,77.254158 265.321106,74.344620 
z"/>
<path fill="#96C8DA" opacity="1.000000" stroke="none" 
	d="
M291.877258,155.076584 
	C291.646851,158.649826 291.417389,161.758255 291.187927,164.866684 
	C290.661774,164.806580 290.135620,164.746460 289.609467,164.686356 
	C289.609467,158.942169 289.609467,153.197983 289.609467,147.453796 
	C290.203735,147.418839 290.797974,147.383896 291.392242,147.348938 
	C291.554199,149.769882 291.716156,152.190842 291.877258,155.076584 
z"/>
<path fill="#E2F3FD" opacity="1.000000" stroke="none" 
	d="
M290.752167,173.314392 
	C291.288574,176.262039 291.435547,179.052048 291.582520,181.842056 
	C290.660126,181.786499 289.737762,181.730942 288.815399,181.675385 
	C289.331177,178.835831 289.846954,175.996292 290.752167,173.314392 
z"/>
<path fill="#A5DAF0" opacity="1.000000" stroke="none" 
	d="
M194.837097,66.847015 
	C195.569305,66.772324 196.084869,66.908218 196.600449,67.044113 
	C196.079941,67.553940 195.559433,68.063759 195.038910,68.573578 
	C194.899445,68.068245 194.759964,67.562920 194.837097,66.847015 
z"/>
<path fill="#9ED9F0" opacity="1.000000" stroke="none" 
	d="
M265.051025,69.962173 
	C265.195526,70.101738 265.295197,70.281883 265.394867,70.462029 
	C265.292786,70.424530 265.190674,70.387024 265.006775,70.220947 
	C264.924988,70.092377 265.006226,70.002762 265.051025,69.962173 
z"/>
<path fill="#A5DAF0" opacity="1.000000" stroke="none" 
	d="
M211.000717,152.001022 
	C210.668243,152.240799 210.335052,152.479553 210.001862,152.718307 
	C209.920441,152.601074 209.839020,152.483856 209.757584,152.366638 
	C210.018463,152.253723 210.279358,152.140808 210.768906,152.012756 
	C210.997559,151.997604 211.000000,152.000000 211.000717,152.001022 
z"/>
<path fill="#25BDCF" opacity="1.000000" stroke="none" 
	d="
M226.847092,122.559296 
	C226.869812,113.161911 226.869812,104.218681 226.869812,95.275452 
	C227.300995,95.227379 227.732178,95.179306 228.163361,95.131233 
	C228.428696,95.637825 228.920837,96.142303 228.925583,96.651314 
	C229.005844,105.268127 229.059341,113.885750 228.996506,122.502304 
	C228.991302,123.216194 228.108124,123.923691 227.632874,124.634171 
	C227.363373,124.093925 227.093872,123.553688 226.847092,122.559296 
z"/>
<path fill="#24BACD" opacity="1.000000" stroke="none" 
	d="
M262.256592,168.471344 
	C261.732574,168.956009 261.247101,168.978058 260.397308,168.999359 
	C260.032990,161.856415 260.032990,154.714218 260.032990,147.572037 
	C260.784790,147.561752 261.536621,147.551483 262.288422,147.541199 
	C262.290680,154.363724 262.292938,161.186234 262.256592,168.471344 
z"/>
<path fill="#25AFBE" opacity="1.000000" stroke="none" 
	d="
M266.963928,160.250671 
	C267.178284,160.170532 267.356354,160.326233 267.484985,160.515549 
	C267.515564,160.560623 267.380646,160.718140 267.160950,160.911346 
	C266.969879,160.832123 266.939728,160.665466 266.963928,160.250671 
z"/>
<path fill="#25AFBE" opacity="1.000000" stroke="none" 
	d="
M247.664383,160.483200 
	C247.682159,163.755157 247.682159,166.602814 247.682159,169.450470 
	C246.869019,169.470108 246.055878,169.489731 245.242737,169.509369 
	C245.242737,166.026794 245.242737,162.544220 245.242737,159.061646 
	C246.044022,159.394073 246.845306,159.726486 247.664383,160.483200 
z"/>
<path fill="#96C8DA" opacity="1.000000" stroke="none" 
	d="
M262.822327,117.489243 
	C263.229767,115.933464 263.627991,114.795517 264.026215,113.657578 
	C264.341034,113.727310 264.655884,113.797043 264.970703,113.866776 
	C264.970703,117.790962 264.970703,121.715149 264.970703,125.639336 
	C264.368927,125.662712 263.767120,125.686081 263.165344,125.709450 
	C263.047943,123.108658 262.930542,120.507874 262.822327,117.489243 
z"/>
<path fill="#25AFBE" opacity="1.000000" stroke="none" 
	d="
M272.224792,154.678772 
	C271.970306,154.415131 271.975586,154.058777 271.978882,153.434570 
	C272.146118,153.639816 272.315338,154.112961 272.224792,154.678772 
z"/>
<path fill="#25AFBE" opacity="1.000000" stroke="none" 
	d="
M269.671631,158.612457 
	C269.549011,158.356827 269.561737,157.797592 269.782013,157.117950 
	C269.928711,157.434662 269.867798,157.871765 269.671631,158.612457 
z"/>
<path fill="#25AFBE" opacity="1.000000" stroke="none" 
	d="
M270.088684,170.633881 
	C269.843384,170.466370 269.572845,169.969437 269.446472,169.276031 
	C269.748260,169.487869 269.905853,169.896149 270.088684,170.633881 
z"/>
<path fill="#25AFBE" opacity="1.000000" stroke="none" 
	d="
M271.155762,172.564911 
	C270.760132,172.739807 270.315582,172.699783 269.871063,172.659729 
	C270.047333,172.455795 270.223602,172.251862 270.629272,172.016785 
	C270.858673,171.985657 271.106903,172.349976 271.155762,172.564911 
z"/>
</svg>