<?xml version="1.0" standalone="no"?>
<!DOCTYPE svg PUBLIC "-//W3C//DTD SVG 20010904//EN"
 "http://www.w3.org/TR/2001/REC-SVG-20010904/DTD/svg10.dtd">
<svg version="1.0" xmlns="http://www.w3.org/2000/svg"
 width="112.000000pt" height="112.000000pt" viewBox="0 0 112.000000 112.000000"
 preserveAspectRatio="xMidYMid meet">

<g transform="translate(0.000000,112.000000) scale(0.100000,-0.100000)"
fill="#000000" stroke="none">
<path d="M440 1104 c-105 -23 -186 -68 -271 -153 -86 -87 -131 -166 -154 -276
-40 -191 12 -364 154 -506 225 -225 557 -225 782 0 86 87 131 166 154 276 40
191 -12 364 -154 506 -142 142 -319 195 -511 153z m258 -311 l-3 -48 -45 -5
-45 -5 -3 -52 -3 -53 50 0 51 0 0 -39 c0 -63 -7 -71 -56 -71 l-44 0 0 -120 0
-120 -55 0 -55 0 0 120 0 120 -35 0 -35 0 0 55 0 55 34 0 34 0 4 65 c6 105 48
145 151 145 l58 0 -3 -47z"/>
</g>
</svg>
