<?xml version="1.0" standalone="no"?>
<!DOCTYPE svg PUBLIC "-//W3C//DTD SVG 20010904//EN"
 "http://www.w3.org/TR/2001/REC-SVG-20010904/DTD/svg10.dtd">
<svg version="1.0" xmlns="http://www.w3.org/2000/svg"
 width="112.000000pt" height="112.000000pt" viewBox="0 0 112.000000 112.000000"
 preserveAspectRatio="xMidYMid meet">

<g transform="translate(0.000000,112.000000) scale(0.100000,-0.100000)"
fill="#000000" stroke="none">
<path d="M480 1059 c-81 -14 -192 -70 -256 -131 -57 -54 -110 -131 -100 -146
7 -12 156 -125 159 -121 1 2 11 21 22 42 28 55 107 123 167 143 74 24 180 16
244 -20 l48 -27 70 71 71 71 -28 23 c-46 38 -132 76 -204 91 -76 16 -112 17
-193 4z"/>
<path d="M580 555 l0 -95 136 0 137 0 -7 -32 c-8 -38 -51 -105 -78 -119 -17
-9 -10 -17 58 -70 l77 -60 28 27 c76 72 140 271 125 387 l-7 57 -235 0 -234 0
0 -95z"/>
</g>
</svg>
